<svg xmlns="http://www.w3.org/2000/svg" x="0px" y="0px" width="100" height="100" viewBox="0 0 100 100" style="fill:#EBEBEB;">
    <path d="M 50 14 C 30.157686 14 14 30.157686 14 50 C 14 69.842314 30.157686 86 50 86 C 69.842314 86 86 69.842314 86 50 C 86 30.157686 69.842314 14 50 14 z M 50 16 C 68.757686 16 84 31.242314 84 50 C 84 68.757686 68.757686 84 50 84 C 31.242314 84 16 68.757686 16 50 C 16 31.242314 31.242314 16 50 16 z M 50 19 C 32.928175 19 19 32.928175 19 50 C 19 67.071825 32.928175 81 50 81 C 67.071825 81 81 67.071825 81 50 C 81 40.855556 77.034435 32.719881 70.837891 27.03125 A 0.50005 0.50005 0 1 0 70.162109 27.767578 C 76.165565 33.278947 80 41.144444 80 50 C 80 66.528175 66.528175 80 50 80 C 33.471825 80 20 66.528175 20 50 C 20 33.471825 33.471825 20 50 20 C 53.636937 20 57.078097 20.686602 60.330078 21.869141 A 0.50005 0.50005 0 1 0 60.669922 20.929688 C 57.321903 19.712226 53.763063 19 50 19 z M 63.460938 22.097656 A 0.50005 0.50005 0 0 0 63.251953 23.033203 C 63.965311 23.440836 64.565311 23.742399 65.251953 24.134766 A 0.50037869 0.50037869 0 0 0 65.748047 23.265625 C 65.034689 22.857992 64.434689 22.558383 63.748047 22.166016 A 0.50005 0.50005 0 0 0 63.460938 22.097656 z M 67.496094 24.496094 A 0.50005 0.50005 0 0 0 67.222656 25.416016 C 67.565325 25.644462 67.925052 25.831302 68.146484 26.052734 A 0.50005 0.50005 0 1 0 68.853516 25.345703 C 68.474948 24.967136 68.034675 24.755538 67.777344 24.583984 A 0.50005 0.50005 0 0 0 67.496094 24.496094 z"/>
    <path d="M 39 54 L 30 45 L 26 49 L 39 62 L 73 28 L 69 24 Z"/>
</svg>
